/* XPM */
static char *a675c5df790f4c2cfaa0c639d69699abeogFTtE2ZXXKplsW[] = {
/* columns rows colors chars-per-pixel */
"84 64 177 2 ",
"   c None",
".  c black",
"X  c #080C10",
"o  c #081418",
"O  c #101418",
"+  c #101818",
"@  c #181C18",
"#  c #2A280F",
"$  c #3E3614",
"%  c #101C21",
"&  c #181C21",
"*  c #182021",
"=  c #182429",
"-  c #212429",
";  c #212829",
":  c #292C29",
">  c #212831",
",  c #292B31",
"<  c #292C39",
"1  c #293039",
"2  c #313339",
"3  c #313839",
"4  c #4C3F19",
"5  c #433A16",
"6  c #423839",
"7  c #584821",
"8  c #6D5227",
"9  c #695128",
"0  c #75582B",
"q  c #313842",
"w  c #393B42",
"e  c #313442",
"r  c #39454A",
"t  c #394952",
"y  c #42434A",
"u  c #42494A",
"i  c #4A4D52",
"p  c #424B56",
"a  c #4A5552",
"s  c #4A515A",
"d  c #42515A",
"f  c #52535A",
"g  c #525963",
"h  c #5A5A63",
"j  c #52616B",
"k  c #5A616B",
"l  c #5A6563",
"z  c #5A6973",
"x  c #63646B",
"c  c #63716B",
"v  c #6B6B73",
"b  c #636973",
"n  c #73737B",
"m  c #737D7B",
"M  c #825630",
"N  c #855930",
"B  c #896332",
"V  c #806032",
"C  c #986937",
"Z  c #9B6C3A",
"A  c #946737",
"S  c #9E703E",
"D  c #A96D3E",
"F  c #A36F3D",
"G  c #A3753E",
"H  c #A97842",
"J  c #AD7340",
"K  c #B37C47",
"L  c #B98B4A",
"P  c #B68649",
"I  c #B98550",
"U  c #C6804B",
"Y  c #CB884F",
"T  c #CC8A53",
"R  c #C28751",
"E  c #D98C53",
"W  c #D68C53",
"Q  c #DD945B",
"!  c #D99659",
"~  c #E3965B",
"^  c #EC995B",
"/  c #E59558",
"(  c #F39F5F",
")  c #D89B63",
"_  c #E89A61",
"`  c #F79D61",
"'  c #DDA468",
"]  c #E4A369",
"[  c #FEA565",
"{  c #F7A769",
"}  c #E4AB73",
"|  c #ECAD70",
" . c #F5AC78",
".. c #EFBE7B",
"X. c #E8B57B",
"o. c #F7B57B",
"O. c #F6C87D",
"+. c #7B7A84",
"@. c #737984",
"#. c #7B828C",
"$. c #84858C",
"%. c #848A94",
"&. c #8C8D94",
"*. c #8C929C",
"=. c #8C9A94",
"-. c #94959C",
";. c #949A9C",
":. c #9C9EA5",
">. c #949AA5",
",. c #9CA2AD",
"<. c #A5A6AD",
"1. c #A5AAB5",
"2. c #ADAEB5",
"3. c #ADB3BD",
"4. c #B5B6BD",
"5. c #EFAF80",
"6. c #EDBB84",
"7. c #FCBA84",
"8. c #F9B684",
"9. c #FFBE93",
"0. c #EDC38B",
"q. c #FBC78B",
"w. c #FFD385",
"e. c #FFD38B",
"r. c #FFD88D",
"t. c #EECC95",
"y. c #FCC292",
"u. c #F3CC9C",
"i. c #FAC698",
"p. c #F2D29C",
"a. c #FFD394",
"s. c #FBC5A2",
"d. c #FDCBA3",
"f. c #FFC7AC",
"g. c #FDCBAA",
"h. c #F5CCA8",
"j. c #F3D5A4",
"k. c #FCD3A6",
"l. c #FBDEAC",
"z. c #F8D6AB",
"x. c #FDCBB3",
"c. c #FCD4B3",
"v. c #FCDFB4",
"b. c #FAD4BA",
"n. c #FBDBBD",
"m. c #F4D6BA",
"M. c #EBD6B8",
"N. c #FFE3AD",
"B. c #FEE1B4",
"V. c #B5BDC6",
"C. c #BDBEC6",
"Z. c #BDC6CE",
"A. c #B8C3CB",
"S. c #B9CCD6",
"D. c #BDD5DE",
"F. c #ADC7D2",
"G. c #C6C7CE",
"H. c #C6CBCE",
"J. c #C6CCD6",
"K. c #CECFD6",
"L. c #C6D6DE",
"P. c #CED4DE",
"I. c #E9DBC6",
"U. c #FADBC5",
"Y. c #FBDCCD",
"T. c #F6D9C9",
"R. c #FAD7D4",
"E. c #FAD8D3",
"W. c #EEDBD0",
"Q. c #DAEACC",
"!. c #DDE0D0",
"~. c #E5E2CC",
"^. c #FBE2CA",
"/. c #FEEDCB",
"(. c #F7E3C9",
"). c #FFF4CE",
"_. c #E6E1D0",
/* pixels */
"                                                                                                                                                                        ",
"                                                                                                                                                                        ",
"                                                                                                                                                                        ",
"                                                                                                                                                                        ",
"                                                                                                                                                                        ",
"                                                                                                                                                                        ",
"                        P.G.                                                                                                                                            ",
"                        P.G.+.                                                                                                                                          ",
"                        P.G.+.x                                                                                                                                         ",
"                        P.G.+.x f                                                                                                                                       ",
"                        P.G.$.v f y                                                                                                                                     ",
"                        P.G.&.n i y r                                                                                                                                   ",
"                        D.J.;.+.g w 2 t                                                                                                                                 ",
"                        D.J.,.+.h i 2 , r                                                                                                                               ",
"                        D.J.,.#.n f y 2 1 t                                                                                                                             ",
"                        L.J.<.#.n k f w 2 q d                                                                                                                           ",
"                        L.J.1.$.m x g i y e e p                                                                                                                         ",
"                        L.J.2.&.+.n x f i y q q t                                                                                                                       ",
"                        L.J.2.&.#.#.n x f i y w 2 t                                                                                                                     ",
"                        L.J.3.&.#.%.$.n x f i y q 1 t                                                                                                                   ",
"                        P.K.4.%.+.%.&.#.v k f a y 2 , q                                                                                                                 ",
"                        J.P.4.%.+.$.*.%.+.v k f i y 2 , ,                                                                                                               ",
"                        J.K.4.%.+.$.*.&.$.n v h f i y 2 ; >                                                                                                             ",
"                        J.P.4.%.+.#.*.*.&.#.n x g f y w 1 ; ,                                                                                                           ",
"                        J.K.V.*.+.#.*.*.&.#.+.v k f a y w , ; > = q                                                                                                     ",
"                        J.J.C.;.#.#.*.*.*.#.+.#.v h f i u q , & = , g                                                                                                   ",
"                          A.Z.:.$.#.*.*.*.#.+.#.#.x f i y w 2 > * = 2 k                                                                                                 ",
"                          F.H.<.*.#.*.*.*.#.+.#.#.n h i u w q , = * = 2 j                                                                                               ",
"                          J.J.4.:.*.*.*.*.#.+.#.#.m n i w q 2 , ; * * - 2 g                                                                                             ",
"                            A.Z.1.;.*.*.*.#.+.#.$.+.+.x q , 1 > - & & & & , s                                                                                           ",
"                            J.G.4.:.*.*.*.#.+.#.+.+.#.n x ; @ & * & & % % * , i                                                                                         ",
"                              A.J.2.-.*.*.#.+.#.#.+.#.+.n 2 . . @ + + + + + & > s                                                                                       ",
"                              J.G.V.,.*.*.+.+.#.#.+.#.+.+.c & . . + + O O + + & ; s                                                                                     ",
"                                F.Z.3.,.*.$.+.#.#.+.#.+.+.x c : . . + O O O O + & - s                                                                                   ",
"                                  Z.C.3.:.%.+.#.#.+.#.+.+.x h c 3 . . @ O O O O + & - s                                                                                 ",
"                                    S.V.2.>.#.#.#.+.#.+.#.x h f m u . . & O O O O + & , j                                                                               ",
"                                      D.Z.1.&.$.#.+.#.+.#.x h f i c a . . @ O O O O O & 2 z                                                                             ",
"                                        D.V.,.*.&.+.#.#.#.x h f 2 2 =.a * . @ O O o o + & 2 j                                                                           ",
"                                          S.3.,.;.$.#.#.*.x h f 2 ; 2 =.l * O + + O O o + * 2 j                                                                         ",
"                                            S.3.,.-.$.&.*.v h i 2 - , w 2 & : + + + O O + + * < g                                                                       ",
"                                              S.3.,.*.&.;.v h f 2 - , y y e & & O + + O O O + * 1 l                                                                     ",
"                                                J.3.,.;.-.n h f 2 ; ; w i f e = & % % + O + + + = q k                                                                   ",
"                                                  J.3.,.;.+.k f 2 ; * w i h g 2 - * = & + % * * - 2 h ,.  *.*.                                                          ",
"                                                    G.4.,.$.v f w ; & 2 y h h i 2 - , > > , 2 w y h %.*.*.*.+.y                                                         ",
"                                                      Z.3.>.@.h y ; & 2 y h h f y q , w y f x n #.$.&.*.+.k y 6                                                         ",
"                                                        Z.1.*.v p , & 2 y h h f y y y g x >.,.*.*.*.+.k y a U U ` [ 7.w.[                                               ",
"                                                          Z.<.#.f 2 * 2 y x h f y y x :.<.*.*.*.+.x y ; u a 7 M U ^ w.w.f.f.[                                           ",
"                                                            A.,.n w - 2 y x h f y ,.<.*.*.*.+.k y ; ; 3 3 u 8 M ` w.N.N.N.N.f.[ ^                                       ",
"                                                              V.>.g ; 2 y k h ,.<.*.*.*.+.k y @ * : 3 3 3 9 U [ N.R.R.R.R.R.B.w.[ ^                                     ",
"                                                                V.*.f 2 y ,.<.*.*.*.+.k ; X X @ @ * : : 9 U R.R.R.R.R.R.R.R.N.N.w.[ ^                                   ",
"                                                                  C.x n ,.*.*.*.+.k ; X X @ @ @ @ : 8 U ..).R.R.R.R.R.R.R.E.N.N.w.w.[ ^ ^                               ",
"                                                                  b x h +.*.k y X X @ @ @ @ @ ; 9 U O.N.R.R.R.R.).R.R.R.R.N.N.r.w.w.w.w.[ ^                             ",
"                                                                  k k k k ; X @ @ @ @ @ @ C U O.N.N.R.R.R.).R.j.R.R.f.R.B.N.c.e.r.w.w.w.r.[ ^                           ",
"                                                                k k k y @ @ @ @ @ @ C U ..N.R.R.R.R.R.).E.B.z.z.f.T.u.T.B.c.d.i.y.q.a.d.d.r.[ _                         ",
"                                                              k k k y 8 8 @ @ @ A U O.N.R.R.E.E./.U.N.l.l.z.j.h.9.s.h.f.f.9.8.8.7.9.d.k.k.g.a.w.{                       ",
"                                                                y y 8 8 U G 8 M U N.R.R.E.).Y.U.z.j.p.p.t.t.6.6.X.5. .{ [ [ _ ` 8.i.g.g.c.v.c.x.e.`                     ",
"                                                                      U f.L 8 U 7.R.R.).Y.n.j.p.t.0.0.0.6.X.| ] ) / T E Q Q W ~ 8.d.m.b.n.B.^.^.v.r.`                   ",
"                                                                      f.f.L M ^ f.).R.).v.z.t.t.0.X.X.} ' ' T G N P N B D C D ) 5.i.c.b.U.U.^./.Y.f.w.w.`               ",
"                                                                    [ f.[ L M ^ ..N.).E.l.j.t.0.X.] ) ) T I Z 9 5 C $ 7 B D E _  .y.d.b.U.U.U.(.U.U.N.f.w.`             ",
"                                                                    Q [ E H M C U ^ r.).n.u.0.' I R I P S G S 4 $ 7 @ $ H / / { o.7.i.d.b.n.T.(.^.U.B.N.N.w.[           ",
"                                                                    U T C 8 4 $ B U ^ r.x.h.0.] U G B 0 9 8 7 $ @ $ $ N L / ` { o.o.q.q.i.c.m.I.(.~.(.n.B.N.w.[ ^       ",
"                                                                    7 B 8 7 $ # 7 9 U ~ a.T.s.O.' R B 9 5 @ @ @ @ 4 7 N C L ! ] {  .o.q.i.g.m.I.I.!.~._.W.W.E.N.w.^     ",
"                                                                      7 C B 7 $ 7 4 8 L Q f.l.s.O./ P A 7 $ @ @ @ 4 8 Z Z Z D W ! ' | o.y.s.h.M.~.Q.Q.Q.Q.Q.!.W.N.w.^   ",
"                                                                        7 W C $ # 8 4 8 L w.N.f.f...Y F B $ @ @ @ $ 7 B G Z S Y ~ | o.7.y.s.M.Q.Q.Q.Q.Q.Q.Q.Q.Q.Q.N.w.^ "
};
